<?xml version="1.0" encoding="UTF-8"?>
<svg version="1.1" xmlns="http://www.w3.org/2000/svg" width="2404" height="1695">
<path d="M0 0 C13.57940509 0.00379081 27.1588088 0.00491262 40.73821438 0.0045038 C41.73413855 0.00447511 42.73006273 0.00444642 43.75616642 0.00441685 C48.8394368 0.00426037 53.92270717 0.00406842 59.00597755 0.00386402 C95.26674657 0.00247724 131.52751381 0.00581354 167.78828228 0.01188143 C203.57018723 0.01785456 239.35209141 0.0216665 275.13399685 0.02273424 C276.25551114 0.02276865 277.37702542 0.02280306 278.53252499 0.02283852 C288.77955926 0.02315183 299.02659354 0.0234395 309.27362782 0.02369649 C334.71840224 0.02433494 360.16317665 0.02529368 385.60795105 0.02647169 C387.34378799 0.02655167 387.34378799 0.02655167 389.11469234 0.02663326 C445.06636939 0.02923908 501.01804594 0.03554001 556.96972264 0.04217203 C576.32549656 0.04446421 595.68127048 0.04673981 615.03704441 0.04894693 C616.23790121 0.04908388 617.43875801 0.04922083 618.6760044 0.04936193 C674.76343592 0.05573552 730.85086753 0.05944105 786.93829931 0.06248173 C790.59074024 0.06267978 794.24318117 0.06287898 797.89562209 0.06307841 C822.1056055 0.06439848 846.31558891 0.06567307 870.52557233 0.06691727 C918.67531024 0.06939216 966.82504814 0.07213377 1014.97478603 0.07505931 C1017.26651015 0.07519855 1019.55823427 0.07533761 1021.84995839 0.07547648 C1092.27953345 0.07974521 1162.70910834 0.08521457 1233.13868321 0.09196146 C1235.97309128 0.09223229 1238.80749935 0.09250312 1241.64190743 0.09277385 C1320.20422286 0.1003153 1398.76653816 0.10912815 1477.3288535 0.11761148 C1477.3288535 101.09761148 1477.3288535 202.07761148 1477.3288535 306.11761148 C1151.2888535 306.11761148 825.2488535 306.11761148 489.3288535 306.11761148 C489.3288535 328.88761148 489.3288535 351.65761148 489.3288535 375.11761148 C489.21740841 392.53861318 489.09901275 409.95836366 488.92539967 427.37868555 C488.89045732 430.89530282 488.85637162 434.41192758 488.82247532 437.92855509 C488.69795505 450.80436254 488.56738705 463.68009505 488.43007172 476.55577238 C488.35572162 483.53208823 488.28467326 490.50842939 488.21557225 497.48479898 C488.13557212 505.5142117 488.04457728 513.54342904 487.94308079 521.57259805 C487.90798463 524.36828537 487.87713201 527.16396716 487.85012425 529.95974405 C487.81199608 533.70396419 487.76179014 537.44781091 487.70775975 541.19183023 C487.69938084 542.26215494 487.69100193 543.33247965 487.68236912 544.43523844 C487.66569187 545.40251871 487.64901463 546.36979898 487.63183201 547.36639078 C487.62152455 548.19519251 487.61121708 549.02399423 487.60059727 549.87791116 C487.3288535 552.11761148 487.3288535 552.11761148 485.3288535 556.11761148 C377.0888535 556.11761148 268.8488535 556.11761148 157.3288535 556.11761148 C157.0163535 429.24261148 157.0163535 429.24261148 156.94091404 389.11419351 C156.90436943 377.29080732 156.90436943 377.29080732 156.8638419 365.46743448 C156.84583379 360.18251054 156.83603814 354.89764532 156.83173741 349.61269815 C156.82623056 342.88360018 156.80544697 336.15471612 156.77469207 329.42567857 C156.76583156 326.9485108 156.76206612 324.47131869 156.76381422 321.99413569 C156.76545375 318.66284892 156.74892837 315.33214945 156.72758091 312.00094278 C156.73242906 311.01874702 156.73727721 310.03655126 156.74227227 309.024592 C156.73281515 308.135548 156.72335804 307.246504 156.71361435 306.33051927 C156.71171575 305.559687 156.70981715 304.78885473 156.70786101 303.99466391 C156.47547077 301.70560962 156.47547077 301.70560962 153.3288535 300.11761148 C150.33603798 299.81623414 150.33603798 299.81623414 146.858014 299.86872251 C146.19478201 299.86611523 145.53155002 299.86350794 144.84822009 299.86082165 C142.60953756 299.85448903 140.3711321 299.86250528 138.13245762 299.87037332 C136.51700727 299.86878599 134.90155758 299.86632315 133.28610975 299.86305691 C128.83261812 299.8566215 124.37921691 299.86272907 119.92573119 299.87082119 C115.12515049 299.87738423 110.32458013 299.87245199 105.52399815 299.868939 C96.10013584 299.86388467 86.67630851 299.86955865 77.25245054 299.8787893 C66.23660028 299.88918772 55.22075755 299.88910251 44.20490331 299.88861672 C24.49010919 299.88811522 4.77533122 299.8972906 -14.93945705 299.91180094 C-33.96452516 299.92579603 -52.98957903 299.93297575 -72.01465236 299.93230875 C-73.76156601 299.93224881 -73.76156601 299.93224881 -75.54377083 299.93218767 C-77.28795548 299.93212714 -77.28795548 299.93212714 -79.06737619 299.93206538 C-100.81396171 299.93136876 -122.56054128 299.93731613 -144.30712486 299.9462186 C-150.8597885 299.94877804 -157.41245109 299.95015521 -163.96511521 299.95054916 C-220.74170607 299.89643523 -220.74170607 299.89643523 -277.51318752 300.54998453 C-278.53900051 300.56826921 -279.56481349 300.58655389 -280.62171172 300.60539265 C-295.78086384 300.88827105 -310.67969691 301.70575323 -325.6711465 304.11761148 C-327.32001857 304.37284586 -327.32001857 304.37284586 -329.00220119 304.63323648 C-375.54665581 311.96101118 -424.3111909 324.46656816 -460.6711465 356.11761148 C-461.62247463 356.93616617 -462.57380275 357.75472086 -463.553959 358.59808023 C-475.32301555 368.92583455 -484.73958695 380.63873608 -492.6711465 394.11761148 C-493.01774318 394.70236246 -493.36433986 395.28711344 -493.72143947 395.88958414 C-509.36287024 422.65413664 -516.72965008 455.04827893 -516.8742715 485.89886148 C-516.88128582 486.90249735 -516.88830013 487.90613321 -516.895527 488.94018228 C-516.91295286 492.16603805 -516.91938008 495.39171037 -516.9211465 498.61761148 C-516.92182125 499.71786661 -516.92249599 500.81812174 -516.92319118 501.95171793 C-516.87397955 552.38673696 -506.10834452 599.35260476 -469.6711465 636.11761148 C-468.89513088 636.90651773 -468.11911525 637.69542398 -467.319584 638.50823648 C-422.89933232 680.9440783 -351.82725346 688.46911321 -293.4211465 693.86761148 C-291.5519656 694.04115152 -291.5519656 694.04115152 -289.64502346 694.21819742 C-264.40038451 696.38715641 -239.12422896 696.28127638 -213.80898801 696.30355552 C-208.14493193 696.30961982 -202.48088679 696.32133281 -196.81683838 696.33225591 C-185.46254343 696.35324591 -174.10824664 696.36894743 -162.75394127 696.38303316 C-153.11303972 696.39509751 -143.47214357 696.40949702 -133.83124744 696.42529161 C-132.77512449 696.42701833 -132.77512449 696.42701833 -131.69766572 696.42877992 C-128.82115971 696.433486 -125.94465372 696.43820134 -123.06814775 696.44292987 C-93.29281523 696.49183741 -63.51747529 696.53381145 -33.74212908 696.57338714 C-10.15921767 696.60474711 13.42369 696.638116 37.0065963 696.67310992 C136.01326702 696.81992213 235.01995859 696.94803463 1327.3683585 697.99067362 C1329.192386 697.99223091 1329.192386 697.99223091 1331.05326255 697.99381966 C1379.81179256 698.03544169 1428.57032307 698.07646683 1477.3288535 698.11761148 C1477.3288535 793.81761148 1477.3288535 889.51761148 1477.3288535 988.11761148 C1408.37702122 988.12377481 1408.37702122 988.12377481 1338.03222264 988.13006265 C1294.81255205 988.13492124 1294.81255205 988.13492124 1251.59288165 988.14096003 C1248.74124686 988.1413994 1245.88961208 988.14183856 1243.03797729 988.14227421 C1176.44519074 988.15245088 1109.85240789 988.1694627 1043.25962437 988.19190653 C1041.09785789 988.19263325 1038.93609141 988.19335997 1036.77432494 988.19408668 C991.39995299 988.20936232 946.02558145 988.22566599 900.65121031 988.2431575 C877.8587299 988.25194275 855.06624942 988.26053042 832.27376886 988.26893129 C828.83557317 988.27019969 825.39737748 988.27147373 821.9591818 988.272748 C769.00529823 988.29232421 716.05141759 988.30765864 663.09753025 988.31072672 C661.95866167 988.31079278 660.81979309 988.31085885 659.64641334 988.31092692 C641.28405759 988.31196639 622.92170183 988.31265041 604.55934607 988.31328727 C551.68089105 988.31512666 498.80244217 988.3195871 445.92399109 988.34145506 C444.83696969 988.34190332 443.74994829 988.34235157 442.62998685 988.34281342 C418.76928536 988.35270015 394.90858471 988.36393912 371.04788446 988.37645909 C361.44766207 988.38147259 351.84743959 988.38629137 342.24721707 988.39104326 C341.19650369 988.39156804 340.14579032 988.39209281 339.06323715 988.39263349 C305.18907226 988.40945493 271.31492963 988.41041456 237.44076205 988.40308301 C203.32794142 988.39577224 169.21516275 988.40395929 135.10235325 988.43378984 C130.39177405 988.43790519 125.68119472 988.4418422 120.97061528 988.44567163 C119.58546439 988.44680735 119.58546439 988.44680735 118.17233065 988.44796602 C103.53119987 988.45950808 88.89012505 988.45421867 74.24899688 988.44195976 C59.86344057 988.43025898 45.47798308 988.43625792 31.09244275 988.46127196 C22.65129795 988.47541098 14.21041998 988.47578086 5.7692849 988.45604295 C-0.48730424 988.44292843 -6.74358405 988.45569329 -13.00013875 988.4787722 C-15.52309512 988.48401596 -18.04608607 988.48078817 -20.56901697 988.468297 C-23.98434958 988.45259402 -27.39822564 988.46751562 -30.81348758 988.49020697 C-31.79231342 988.47832184 -32.77113926 988.46643671 -33.77962648 988.45419142 C-42.87105938 988.57689836 -49.41844605 992.4639941 -56.07153713 998.47015054 C-58.90112279 1001.38438193 -61.15516826 1004.63236555 -63.4211465 1007.99261148 C-63.93644924 1008.73946207 -64.45175197 1009.48631265 -64.98266994 1010.25579508 C-66.55428348 1012.5371851 -68.11320317 1014.82687263 -69.6711465 1017.11761148 C-70.55552263 1018.40478536 -71.44088714 1019.69128089 -72.3273965 1020.97698648 C-74.10331989 1023.55383623 -75.87474804 1026.13369836 -77.64380275 1028.71526773 C-81.19296951 1033.88582071 -84.77562108 1039.03298833 -88.3586465 1044.18011148 C-89.03403469 1045.15037271 -89.70942287 1046.12063394 -90.40527736 1047.12029703 C-93.19421248 1051.12595894 -95.98396802 1055.13104916 -98.77368557 1059.13616617 C-105.73904902 1069.13729698 -112.70050763 1079.14018661 -119.59033596 1089.19353922 C-123.84454092 1095.39093471 -128.16330784 1101.54267224 -132.48022854 1107.6964689 C-136.07063669 1112.81881729 -139.63613368 1117.95689885 -143.1711465 1123.11761148 C-147.78134559 1129.84594139 -152.45014864 1136.53191945 -157.13257229 1143.21014078 C-163.65942328 1152.52099425 -170.14910509 1161.85758305 -176.63891994 1171.19427164 C-179.98175705 1176.0029131 -183.32654031 1180.8102004 -186.6711465 1185.61761148 C-188.00448938 1187.53427151 -189.33782271 1189.45093818 -190.6711465 1191.36761148 C-230.6711465 1248.86761148 -270.6711465 1306.36761148 -310.6711465 1363.86761148 C-311.33130764 1364.81660318 -311.99146877 1365.76559488 -312.67163479 1366.7433439 C-314.00330236 1368.65759571 -315.33500801 1370.57182103 -316.66675197 1372.48601969 C-320.02588625 1377.3144158 -323.38433153 1382.14328855 -326.741459 1386.97308023 C-333.60704339 1396.84895931 -340.48483292 1406.71597158 -347.38696682 1416.56634195 C-353.82648852 1425.76020454 -360.23239076 1434.97740346 -366.63891994 1444.19427164 C-369.98175705 1449.0029131 -373.32654031 1453.8102004 -376.6711465 1458.61761148 C-378.00448938 1460.53427151 -379.33782271 1462.45093818 -380.6711465 1464.36761148 C-436.67114649 1544.86761146 -436.67114649 1544.86761146 -438.67236721 1547.74432047 C-440.00168879 1549.65525069 -441.33095339 1551.56622055 -442.66016018 1553.47723062 C-446.05439999 1558.3569965 -449.4497184 1563.23600614 -452.84692775 1568.11370523 C-459.1203324 1577.12297451 -465.3841915 1586.13778985 -471.59033596 1595.19353922 C-475.84454092 1601.39093471 -480.16330784 1607.54267224 -484.48022854 1613.6964689 C-488.0706359 1618.81881616 -491.63622553 1623.95683664 -495.1711465 1629.11761148 C-499.88733628 1636.00296866 -504.66867394 1642.84138745 -509.46435939 1649.67156656 C-512.74329664 1654.346411 -515.99471393 1659.0379191 -519.21069729 1663.75628336 C-538.32275989 1691.76683686 -538.32275989 1691.76683686 -554.6711465 1695.11761148 C-556.77021649 1695.2080678 -558.87198168 1695.24136625 -560.97299968 1695.24065931 C-562.27678703 1695.24265036 -563.58057438 1695.24464141 -564.92387044 1695.24669279 C-566.37415486 1695.24383971 -567.8244391 1695.24089412 -569.27472316 1695.237866 C-570.8126013 1695.23830193 -572.35047937 1695.23917724 -573.88835704 1695.24045517 C-578.12071455 1695.24269582 -582.35304686 1695.23868467 -586.58540117 1695.2336771 C-591.14706401 1695.22936667 -595.70872537 1695.23081945 -600.27038967 1695.23157938 C-608.17591323 1695.23210423 -616.08142855 1695.22896141 -623.98695003 1695.22334154 C-635.41706794 1695.21522138 -646.84718186 1695.21261079 -658.27730235 1695.21135355 C-676.82102089 1695.20916384 -695.36473504 1695.20250595 -713.90845119 1695.19305094 C-731.92407597 1695.18387472 -749.93969955 1695.17679491 -767.95532619 1695.17254312 C-769.06543765 1695.1722804 -770.17554911 1695.17201768 -771.31930032 1695.17174699 C-776.88829228 1695.17044197 -782.45728425 1695.16917826 -788.02627622 1695.16793509 C-834.24123603 1695.15756501 -880.45619104 1695.13994889 -926.6711465 1695.11761148 C-922.85574939 1674.9705608 -911.16148342 1655.19598632 -898.741459 1639.14495523 C-895.756487 1635.2738489 -892.97418649 1631.28914707 -890.2336465 1627.24261148 C-886.35116797 1621.52305774 -882.36616992 1615.89275019 -878.2961465 1610.30511148 C-873.78479062 1604.10885584 -869.40511381 1597.83960703 -865.1086465 1591.49261148 C-860.59899422 1584.83634307 -855.91516569 1578.3584671 -851.04761135 1571.96038492 C-847.16029873 1566.82938843 -843.49605777 1561.57242097 -839.87891018 1556.248715 C-836.45683182 1551.22491639 -832.9326926 1546.28427162 -829.3586465 1541.36761148 C-824.72886914 1534.99658581 -820.17337897 1528.57939714 -815.6711465 1522.11761148 C-810.6583232 1514.92542041 -805.57323978 1507.79155089 -800.42505275 1500.69573648 C-796.29663845 1495.00033281 -792.2323459 1489.26231416 -788.18799221 1483.50701578 C-784.58239425 1478.38495095 -780.91693682 1473.30899467 -777.2336465 1468.24261148 C-772.74566582 1462.06602387 -768.38972803 1455.8141607 -764.1086465 1449.49261148 C-759.64667726 1442.90675288 -755.01334141 1436.50076371 -750.19043361 1430.17571695 C-746.3461548 1425.10089048 -742.73541458 1419.89202957 -739.1711465 1414.61761148 C-734.64271442 1407.91663748 -729.94444717 1401.39657607 -725.04785549 1394.9608732 C-721.16224132 1389.83168329 -717.49922297 1384.57687155 -713.88330471 1379.25530679 C-709.88839522 1373.39087946 -705.74648204 1367.64095617 -701.57764064 1361.89934976 C-697.90198441 1356.83303677 -694.27033105 1351.73849915 -690.6711465 1346.61761148 C-686.00993246 1339.98827803 -681.28170049 1333.41032375 -676.52661525 1326.84808023 C-672.36719557 1321.100338 -668.2677141 1315.3125789 -664.18848049 1309.5077482 C-660.5827576 1304.38541207 -656.91710939 1299.30923203 -653.2336465 1294.24261148 C-648.74566582 1288.06602387 -644.38972803 1281.8141607 -640.1086465 1275.49261148 C-635.64667726 1268.90675288 -631.01334141 1262.50076371 -626.19043361 1256.17571695 C-622.3461548 1251.10089048 -618.73541458 1245.89202957 -615.1711465 1240.61761148 C-610.64271442 1233.91663748 -605.94444717 1227.39657607 -601.04785549 1220.9608732 C-597.16064522 1215.82957637 -593.49616056 1210.57257225 -589.87891018 1205.248715 C-586.45683182 1200.22491639 -582.9326926 1195.28427162 -579.3586465 1190.36761148 C-574.72886975 1183.99658664 -570.17334077 1177.57942306 -565.6711465 1171.11761148 C-560.70685503 1163.99424721 -555.66725668 1156.93220604 -550.56567775 1149.90667398 C-546.54067691 1144.35158806 -542.5934227 1138.74560161 -538.6711465 1133.11761148 C-534.22779314 1126.74193888 -529.73724063 1120.40597382 -525.1711465 1114.11761148 C-518.78883564 1105.3250477 -512.56398465 1096.4263657 -506.34692775 1087.51653726 C-499.72243437 1078.03339741 -493.0329615 1068.60119067 -486.2336465 1059.24261148 C-481.73030083 1053.04217727 -477.35006508 1046.77047789 -473.0461465 1040.43011148 C-468.78452915 1034.1523336 -464.42189504 1027.97665593 -459.90063869 1021.88372476 C-455.48753852 1015.91763212 -451.25134988 1009.8325133 -447.01221096 1003.7421232 C-443.04349279 998.05021006 -439.00548193 992.41448358 -434.9211465 986.80511148 C-430.88245364 981.24573272 -426.92608762 975.64406539 -423.1086465 969.93011148 C-422.51841701 969.04875528 -422.51841701 969.04875528 -421.91626369 968.1495939 C-419.32307197 964.22770121 -416.96800789 960.21654552 -414.6711465 956.11761148 C-423.90282566 953.65688617 -433.20891908 951.75173423 -442.5812112 949.92717798 C-445.24761198 949.40739289 -447.91298208 948.88258643 -450.57812893 948.35641153 C-458.15017136 946.8618598 -465.72304245 945.37165785 -473.29858791 943.89495523 C-536.67220443 931.53021417 -536.67220443 931.53021417 -566.3586465 921.18011148 C-567.85569635 920.66874552 -569.35285097 920.15768619 -570.85010158 919.64690836 C-618.96439302 903.11044403 -663.54298338 879.82174783 -702.6711465 847.11761148 C-703.70366416 846.27381935 -704.7362175 845.43007088 -705.76880275 844.58636148 C-720.34572124 832.52957919 -734.08538833 819.08451949 -745.6711465 804.11761148 C-747.25079842 802.26030744 -748.83437907 800.40634015 -750.4211465 798.55511148 C-812.39207365 723.88444118 -831.46619572 628.53080261 -837.6711465 511.11761148 C-837.69306057 509.89219644 -837.71497463 508.6667814 -837.73755275 507.40423258 C-838.92338599 428.47714859 -827.75011021 349.7672354 -766.6711465 220.11761148 C-766.29941311 219.5343107 -765.92767971 218.95100992 -765.54468166 218.35003336 C-763.32370415 214.88893198 -761.01930801 211.49338426 -758.6711465 208.11761148 C-757.92735744 207.03737711 -757.18356838 205.95714273 -756.41724025 204.84417398 C-750.42562905 196.23764199 -743.95285322 188.07239127 -737.24438869 180.0155607 C-735.83255708 178.31233616 -734.44099748 176.59492104 -733.053959 174.87151773 C-726.24056729 166.53777182 -718.69379487 158.92849424 -711.1086465 151.30511148 C-710.57775417 150.76895212 -710.04686184 150.23279276 -709.49988186 149.68038614 C-702.55713205 142.6844552 -695.38969548 136.26545666 -687.6711465 130.11761148 C-686.56933639 129.18281068 -685.47300856 128.24144724 -684.38599025 127.28948648 C-670.49999964 115.18074642 -655.27706158 104.86842696 -639.6711465 95.11761148 C-639.07334377 94.74217203 -638.47554104 94.36673258 -637.85962307 93.97991617 C-567.48918112 50.02302946 -485.4804978 25.26821326 -397.6711465 11.11761148 C-396.60558529 10.95162454 -396.60558529 10.95162454 -395.51849758 10.78228433 C-375.96986122 7.76212521 -356.37542912 5.58506037 -336.6711465 3.86761148 C-335.72308132 3.78452738 -334.77501613 3.70144327 -333.7982217 3.61584146 C-331.0271694 3.37598901 -328.25560871 3.14356624 -325.4836465 2.91448648 C-324.70334072 2.84804941 -323.92303493 2.78161234 -323.11908352 2.71316202 C-304.01181099 1.18528137 -284.88621422 0.927464 -265.72781097 0.80519636 C-263.67335122 0.7902612 -261.61889674 0.77471052 -259.56444205 0.75909635 C-251.36048401 0.69684789 -243.15648356 0.64317642 -234.95245006 0.59198039 C-230.97074301 0.56711256 -226.98904443 0.54109605 -223.0073472 0.51470587 C-148.6717272 0.02232806 -74.3369607 -0.02126283 0 0 Z " fill="#5E0DF8" transform="translate(926.6711465041153,-0.11761148227378726)"/>
<path d="M0 0 C114.84 0 229.68 0 348 0 C348 83.82 348 167.64 348 254 C656.88 254 965.76 254 1284 254 C1284 356.63 1284 459.26 1284 565 C860.28 565 436.56 565 0 565 C0 378.55 0 192.1 0 0 Z " fill="#8E1BF2" transform="translate(1120,1130)"/>
</svg>
